# xmcd
#
# Track frame offsets:
#	154
#	4038
#	21732
#	42863
#	58455
#	79956
#	96355
#	116343
#	130789
#	155592
#	175524
#
# Disc length: 2542 seconds
#
# Revision: 0
# Processed by: cddbd v1.5.2PL0 Copyright (c) Steve Scherf et al.
# Submitted via: audiograbber 1.83.01
#
DISCID=8e09ec0b
DTITLE=Profanation - Contorted Bodies in Pain
DYEAR=2012
DGENRE=Grindcore
TTITLE0=Requiem in Blood
TTITLE1=Lab Rat Expedition
TTITLE2=Death Awaits
TTITLE3=Infernal Hailstorm
TTITLE4=Circle of Blood
TTITLE5=Blow-Torch Inferno
TTITLE6=You`re Mine
TTITLE7=Crimson Departure
TTITLE8=The Architect
TTITLE9=Drive-By Termination
TTITLE10=Anger Management
EXTD=
EXTT0=
EXTT1=
EXTT2=
EXTT3=
EXTT4=
EXTT5=
EXTT6=
EXTT7=
EXTT8=
EXTT9=
EXTT10=
PLAYORDER=
